<svg id="Logos" xmlns="http://www.w3.org/2000/svg" viewBox="0 0 1324.79 255.05"><defs><style>.cls-1{fill:#8996a0;}.cls-2{fill:#003145;}.cls-3{fill:#5bc6e8;}</style></defs><title>ix3_Logo_Horizontal_Extended_Color</title><path class="cls-1" d="M500.94,187.85V170.23a11.74,11.74,0,0,0-1.1-5.44,8.56,8.56,0,0,0-2.83-3.24,10.51,10.51,0,0,0-3.92-1.58,23.21,23.21,0,0,0-4.38-.42,20.12,20.12,0,0,0-5.27.65,11.68,11.68,0,0,0-4.15,2,9.57,9.57,0,0,0-2.8,3.47,13.67,13.67,0,0,0-1.22,5h4.05c.09-2.7.94-4.66,2.57-5.89A10.27,10.27,0,0,1,488.2,163a19.08,19.08,0,0,1,3.38.29,7.5,7.5,0,0,1,2.76,1.06,5.41,5.41,0,0,1,1.87,2.09,7.42,7.42,0,0,1,.67,3.38,5.83,5.83,0,0,1-.35,2.19,3.27,3.27,0,0,1-1,1.32,3.94,3.94,0,0,1-1.61.67,21.3,21.3,0,0,1-2.25.32c-2.18.26-4.34.53-6.46.81a23.79,23.79,0,0,0-5.73,1.44,9.83,9.83,0,0,0-4.08,3,8.59,8.59,0,0,0-1.55,5.44,10,10,0,0,0,.87,4.34,8.39,8.39,0,0,0,2.38,3,9.76,9.76,0,0,0,3.54,1.73,16.38,16.38,0,0,0,4.34.55,17.32,17.32,0,0,0,4.22-.45,11.57,11.57,0,0,0,3.15-1.29,10.78,10.78,0,0,0,2.51-2.09,26.81,26.81,0,0,0,2.22-2.86h.12a15.34,15.34,0,0,0,.17,2.35,4.4,4.4,0,0,0,.67,1.83,3.3,3.3,0,0,0,1.45,1.19,6.1,6.1,0,0,0,2.47.42,10.75,10.75,0,0,0,1.39-.07c.36,0,.78-.1,1.25-.19V190a3.13,3.13,0,0,1-1.29.26A2.13,2.13,0,0,1,500.94,187.85Zm-4.06-7a9.77,9.77,0,0,1-3.44,7.66,10.86,10.86,0,0,1-3.7,2.06,13.94,13.94,0,0,1-4.44.7,8.67,8.67,0,0,1-2.76-.45,7.09,7.09,0,0,1-2.38-1.32,6.38,6.38,0,0,1-1.64-2.05,5.91,5.91,0,0,1-.61-2.74,4.84,4.84,0,0,1,1.44-3.76,9.89,9.89,0,0,1,3.7-2,29.56,29.56,0,0,1,5-1.06q2.73-.34,5.3-.8a16.65,16.65,0,0,0,1.93-.45,2.33,2.33,0,0,0,1.48-1h.13ZM533.1,163a9.28,9.28,0,0,0-3.77-2.54,16.32,16.32,0,0,0-5.82-.9,12,12,0,0,0-6.49,1.84,9.68,9.68,0,0,0-4.12,4.85h-.13v-5.72h-4v33.19h4V174.35a14.46,14.46,0,0,1,.81-4.54,11,11,0,0,1,2-3.6,9.36,9.36,0,0,1,3.22-2.38,10.28,10.28,0,0,1,4.34-.87,9.69,9.69,0,0,1,4.09.77,6.61,6.61,0,0,1,2.6,2.13,8.46,8.46,0,0,1,1.35,3.18,19,19,0,0,1,.39,4v20.71h4V172.35a22.46,22.46,0,0,0-.58-5.34A9.51,9.51,0,0,0,533.1,163Zm41.23-15.21L557,193.71h10.16l3.61-10.23H587.9l3.48,10.23h10.48l-17.18-45.93Zm-1,28.17,6-16.85h.12L585.26,176Zm63.93-15.5H626.48l-11.51,12V147.78h-9.13v45.93H615V182.26l3.54-3.41,9.13,14.86h11.07l-14-21Zm31,5.15a14.86,14.86,0,0,0-5.17-4.41,15.89,15.89,0,0,0-7.4-1.64,17.26,17.26,0,0,0-6.92,1.35,16.06,16.06,0,0,0-8.84,9.27,19.26,19.26,0,0,0-1.22,6.94,20.12,20.12,0,0,0,1.19,7.08,16,16,0,0,0,3.37,5.53,14.84,14.84,0,0,0,5.34,3.57,18.92,18.92,0,0,0,7.08,1.25,17.4,17.4,0,0,0,9.65-2.57c2.65-1.71,4.63-4.57,5.91-8.55h-8a5.7,5.7,0,0,1-2.44,2.92,9.34,9.34,0,0,1-10.68-.61q-2.05-2-2.25-6.43h24a23.56,23.56,0,0,0-.64-7.4A18.06,18.06,0,0,0,668.31,165.6Zm-20.42,7.91a10.18,10.18,0,0,1,.42-2.19,6.62,6.62,0,0,1,1.22-2.31,7,7,0,0,1,2.32-1.84,8,8,0,0,1,3.63-.74,6.44,6.44,0,0,1,5,1.81,10.56,10.56,0,0,1,2.28,5.27Zm45.54-13.44a12.21,12.21,0,0,0-3,1.44,11.71,11.71,0,0,0-2.51,2.26,10.76,10.76,0,0,0-1.73,2.86H686v-6.18h-8.69v33.26h9.14v-15a18.41,18.41,0,0,1,.45-4.18,9.14,9.14,0,0,1,1.51-3.38,7.42,7.42,0,0,1,2.8-2.28,9.68,9.68,0,0,1,4.24-.84,15,15,0,0,1,1.74.1c.6.06,1.12.14,1.54.22v-8.49a7.26,7.26,0,0,0-2-.32A10.66,10.66,0,0,0,693.43,160.07Zm58,9.71a17.2,17.2,0,0,0-4.54-2.16q-2.28-.68-3.57-.93-4.3-1.09-7-1.8a26,26,0,0,1-4.18-1.41,4.68,4.68,0,0,1-2-1.55,4.13,4.13,0,0,1-.51-2.19,4.3,4.3,0,0,1,.64-2.44,5.72,5.72,0,0,1,1.64-1.61,6.57,6.57,0,0,1,2.22-.9,12,12,0,0,1,2.45-.26,16.81,16.81,0,0,1,3.44.33,8.15,8.15,0,0,1,2.8,1.09,5.73,5.73,0,0,1,2,2.12,8.24,8.24,0,0,1,.87,3.41h9.77a14,14,0,0,0-1.51-6.78,13.2,13.2,0,0,0-4.08-4.6,17.39,17.39,0,0,0-5.89-2.61,29,29,0,0,0-6.91-.8,23.88,23.88,0,0,0-6.18.83,17.24,17.24,0,0,0-5.53,2.58,13.61,13.61,0,0,0-4,4.34,12.07,12.07,0,0,0-1.51,6.14,11.27,11.27,0,0,0,1.19,5.37,11.46,11.46,0,0,0,3.12,3.7,17.15,17.15,0,0,0,4.38,2.41,42.86,42.86,0,0,0,5,1.58q2.52.71,5,1.29a29.76,29.76,0,0,1,4.37,1.35,9.17,9.17,0,0,1,3.12,1.93,4,4,0,0,1,1.19,3,4.43,4.43,0,0,1-.9,2.86,6.33,6.33,0,0,1-2.25,1.77,10.06,10.06,0,0,1-2.9.87,20,20,0,0,1-2.89.22,15.41,15.41,0,0,1-3.86-.48,9.5,9.5,0,0,1-3.25-1.48,7.31,7.31,0,0,1-2.22-2.6,8.4,8.4,0,0,1-.83-3.93h-9.78a15.26,15.26,0,0,0,1.54,7.34,14.53,14.53,0,0,0,4.34,5.08,18.56,18.56,0,0,0,6.31,2.92,28.62,28.62,0,0,0,7.36.94,28.27,28.27,0,0,0,8.27-1.1,17.29,17.29,0,0,0,6-3,12.73,12.73,0,0,0,3.64-4.67,14.09,14.09,0,0,0,1.22-5.85,11.27,11.27,0,0,0-1.64-6.33A13.87,13.87,0,0,0,751.45,169.78Zm39.42-5.44a15.38,15.38,0,0,0-5.44-3.53,19.14,19.14,0,0,0-7.1-1.26,18.92,18.92,0,0,0-7.08,1.26,15.48,15.48,0,0,0-5.4,3.53,15.74,15.74,0,0,0-3.48,5.54,22,22,0,0,0,0,14.44,15.75,15.75,0,0,0,3.48,5.5,15.14,15.14,0,0,0,5.4,3.5,19.33,19.33,0,0,0,7.08,1.22,19.56,19.56,0,0,0,7.1-1.22,15,15,0,0,0,5.44-3.5,15.58,15.58,0,0,0,3.47-5.5,21.81,21.81,0,0,0,0-14.44A15.57,15.57,0,0,0,790.87,164.34ZM786.05,181a10.36,10.36,0,0,1-1.32,3.41,6.94,6.94,0,0,1-2.51,2.42,7.75,7.75,0,0,1-3.89.9,7.55,7.55,0,0,1-3.86-.9,7,7,0,0,1-2.48-2.42,10.36,10.36,0,0,1-1.32-3.41,19.22,19.22,0,0,1-.38-3.89,19.73,19.73,0,0,1,.38-3.92,10.11,10.11,0,0,1,1.32-3.41,7.07,7.07,0,0,1,6.34-3.35,7.54,7.54,0,0,1,3.89.94,7.25,7.25,0,0,1,2.51,2.41,10.11,10.11,0,0,1,1.32,3.41,20.51,20.51,0,0,1,.38,3.92A20,20,0,0,1,786.05,181Zm15.55,12.71h9.13V147.78H801.6Zm38.46-15.83q0,5.09-1.67,7.31T833,187.4c-2.18,0-3.71-.67-4.56-2a11.63,11.63,0,0,1-1.29-6.14V160.45H818v20.46a27.17,27.17,0,0,0,.54,5.63,10.82,10.82,0,0,0,1.9,4.31,8.61,8.61,0,0,0,3.7,2.73,16,16,0,0,0,6,1,13.23,13.23,0,0,0,5.66-1.28,10.28,10.28,0,0,0,4.51-4.18h.19v4.63h8.68V160.45h-9.13Zm27.77-27.4H858.7v10h-5.53v6.11h5.53v19.62a8.44,8.44,0,0,0,.84,4,5.91,5.91,0,0,0,2.28,2.39,9.53,9.53,0,0,0,3.35,1.12,26.92,26.92,0,0,0,4,.29c.91,0,1.83,0,2.77-.06a23,23,0,0,0,2.57-.26v-7.08c-.43.09-.88.15-1.35.2s-1,.06-1.48.06a3.1,3.1,0,0,1-3.86-3.86V166.56h6.69v-6.11h-6.69Zm11.92,4.83h9.13v-7.53h-9.13Zm0,38.4h9.13V160.45h-9.13Zm44.88-29.37a15.42,15.42,0,0,0-5.43-3.53,19.23,19.23,0,0,0-7.11-1.26,18.92,18.92,0,0,0-7.08,1.26,15.48,15.48,0,0,0-5.4,3.53,15.74,15.74,0,0,0-3.48,5.54,22,22,0,0,0,0,14.44,15.75,15.75,0,0,0,3.48,5.5,15.14,15.14,0,0,0,5.4,3.5,19.33,19.33,0,0,0,7.08,1.22,19.65,19.65,0,0,0,7.11-1.22,15.09,15.09,0,0,0,5.43-3.5,15.75,15.75,0,0,0,3.48-5.5,22,22,0,0,0,0-14.44A15.74,15.74,0,0,0,924.63,164.34ZM919.81,181a10.36,10.36,0,0,1-1.32,3.41,6.94,6.94,0,0,1-2.51,2.42,7.75,7.75,0,0,1-3.89.9,7.55,7.55,0,0,1-3.86-.9,7,7,0,0,1-2.48-2.42,10.36,10.36,0,0,1-1.32-3.41,20,20,0,0,1-.38-3.89,20.51,20.51,0,0,1,.38-3.92,10.11,10.11,0,0,1,1.32-3.41,7.07,7.07,0,0,1,6.34-3.35,7.54,7.54,0,0,1,3.89.94,7.25,7.25,0,0,1,2.51,2.41,10.11,10.11,0,0,1,1.32,3.41,20.51,20.51,0,0,1,.38,3.92A20,20,0,0,1,919.81,181Zm44.11-17.69a8.91,8.91,0,0,0-3.7-2.76,15.38,15.38,0,0,0-6-1,13,13,0,0,0-5.66,1.32,10.47,10.47,0,0,0-4.51,4.21h-.19v-4.63h-8.68v33.26h9.13V176.28c0-3.39.56-5.83,1.67-7.3s2.92-2.22,5.41-2.22c2.18,0,3.71.67,4.56,2s1.29,3.4,1.29,6.15v18.78h9.14V173.25a27.14,27.14,0,0,0-.55-5.63A10.82,10.82,0,0,0,963.92,163.31Zm35.34,13.19a12.75,12.75,0,0,0-3.38-1.7,37.82,37.82,0,0,0-3.89-1.1c-1.28-.3-2.55-.58-3.79-.83a30.36,30.36,0,0,1-3.32-.87,6.83,6.83,0,0,1-2.34-1.26,2.75,2.75,0,0,1-.39-3.63,3.28,3.28,0,0,1,1.25-.93,5.33,5.33,0,0,1,1.65-.42c.6-.06,1.15-.1,1.67-.1a9,9,0,0,1,4.24.94,4,4,0,0,1,2,3.57h8.68a11,11,0,0,0-1.57-5.12,10.5,10.5,0,0,0-3.32-3.25,13.91,13.91,0,0,0-4.53-1.73,25.9,25.9,0,0,0-5.25-.52,28.7,28.7,0,0,0-5.27.48,14.59,14.59,0,0,0-4.63,1.68,9.12,9.12,0,0,0-3.31,3.25,10,10,0,0,0-1.26,5.27,7.12,7.12,0,0,0,.9,3.7,7.92,7.92,0,0,0,2.38,2.51,13.55,13.55,0,0,0,3.38,1.61c1.26.4,2.56.76,3.89,1.06a53,53,0,0,1,7.62,2.06c1.83.68,2.74,1.71,2.74,3.08a3.43,3.43,0,0,1-.58,2,4.49,4.49,0,0,1-1.45,1.29,6.92,6.92,0,0,1-1.93.7,9.8,9.8,0,0,1-2,.23,10.7,10.7,0,0,1-2.6-.32,6.82,6.82,0,0,1-2.22-1,5.4,5.4,0,0,1-1.58-1.74,5.05,5.05,0,0,1-.61-2.54h-8.68a11.27,11.27,0,0,0,1.51,5.57,11,11,0,0,0,3.54,3.57A15.1,15.1,0,0,0,981.7,194a27.94,27.94,0,0,0,5.66.57,28.74,28.74,0,0,0,5.57-.54,14.18,14.18,0,0,0,4.85-1.9,10.11,10.11,0,0,0,4.76-9.07,7.75,7.75,0,0,0-.9-3.89A8.24,8.24,0,0,0,999.26,176.5Zm49.53,9.1a10.36,10.36,0,0,1-2.12,3,9.52,9.52,0,0,1-3,2,9,9,0,0,1-3.54.7,10.19,10.19,0,0,1-5.08-1.22,11,11,0,0,1-3.63-3.21,14.39,14.39,0,0,1-2.19-4.54,18.5,18.5,0,0,1,0-10.36,14.44,14.44,0,0,1,2.19-4.53,11.14,11.14,0,0,1,3.63-3.22,10.29,10.29,0,0,1,5.08-1.22,8.88,8.88,0,0,1,6.31,2.12,11.27,11.27,0,0,1,3.08,5.86h4.06q-.72-5.73-4.41-8.56a14.49,14.49,0,0,0-9-2.83,15.16,15.16,0,0,0-6.72,1.42,14.69,14.69,0,0,0-4.92,3.79,16.3,16.3,0,0,0-3,5.57,22.86,22.86,0,0,0,0,13.57,16.25,16.25,0,0,0,3,5.56,14.38,14.38,0,0,0,4.92,3.77,15.58,15.58,0,0,0,6.72,1.38,13,13,0,0,0,9.26-3.38,15.32,15.32,0,0,0,4.44-9.42h-4A11,11,0,0,1,1048.79,185.6Zm36.07-20.84a14.69,14.69,0,0,0-4.92-3.79,16.61,16.61,0,0,0-13.44,0,14.69,14.69,0,0,0-4.92,3.79,16.49,16.49,0,0,0-3,5.57,22.86,22.86,0,0,0,0,13.57,16.44,16.44,0,0,0,3,5.56,14.38,14.38,0,0,0,4.92,3.77,17.05,17.05,0,0,0,13.44,0,14.38,14.38,0,0,0,4.92-3.77,16.44,16.44,0,0,0,3-5.56,23.08,23.08,0,0,0,0-13.57A16.49,16.49,0,0,0,1084.86,164.76Zm-.74,17.53a14.59,14.59,0,0,1-2.18,4.54,11.13,11.13,0,0,1-3.64,3.21,11.19,11.19,0,0,1-10.16,0,11.13,11.13,0,0,1-3.64-3.21,14.59,14.59,0,0,1-2.18-4.54,18.5,18.5,0,0,1,0-10.36,14.64,14.64,0,0,1,2.18-4.53,11.27,11.27,0,0,1,3.64-3.22,11.19,11.19,0,0,1,10.16,0,11.27,11.27,0,0,1,3.64,3.22,14.64,14.64,0,0,1,2.18,4.53,18.5,18.5,0,0,1,0,10.36Zm45.27-22.74a12.55,12.55,0,0,0-6.18,1.61,10.12,10.12,0,0,0-4.37,4.89,7.87,7.87,0,0,0-3.57-4.89,11.32,11.32,0,0,0-6-1.61,11.77,11.77,0,0,0-6.66,1.74,12.65,12.65,0,0,0-4.21,4.82h-.2v-5.59h-3.73v33.19h4.06V175.18a19,19,0,0,1,.58-4.85,11.3,11.3,0,0,1,1.76-3.86,8.36,8.36,0,0,1,3.09-2.58,10.08,10.08,0,0,1,4.47-.93,7.7,7.7,0,0,1,3.28.64,5.55,5.55,0,0,1,2.16,1.77,7.55,7.55,0,0,1,1.16,2.64,14.28,14.28,0,0,1,.35,3.18v22.52h4V174.93a23.4,23.4,0,0,1,.42-4.48,11.28,11.28,0,0,1,1.45-3.82,7.6,7.6,0,0,1,2.76-2.67,8.66,8.66,0,0,1,4.38-1q4.37,0,6.11,2.16c1.16,1.43,1.73,3.52,1.73,6.27v22.32h4.06V171.19Q1140.39,159.55,1129.39,159.55Zm45.12,5.24a13.6,13.6,0,0,0-4.67-3.82,14.32,14.32,0,0,0-6.59-1.42,14,14,0,0,0-7.24,1.9,10.86,10.86,0,0,0-4.6,5.37h-.13v-6.3h-3.73v45.41h4.06V187.4h.13a9.27,9.27,0,0,0,1.83,3.16,10.93,10.93,0,0,0,2.73,2.25,12.78,12.78,0,0,0,3.35,1.35,15.75,15.75,0,0,0,10.19-.93,13.32,13.32,0,0,0,4.67-3.8,16.3,16.3,0,0,0,2.76-5.6,25.54,25.54,0,0,0,0-13.44A16.39,16.39,0,0,0,1174.51,164.79Zm-1,17.44a14.19,14.19,0,0,1-1.93,4.53,10.71,10.71,0,0,1-3.38,3.25,9.29,9.29,0,0,1-5,1.25,10.86,10.86,0,0,1-5.44-1.25,10.75,10.75,0,0,1-3.6-3.25,13.26,13.26,0,0,1-2-4.53,21.72,21.72,0,0,1-.61-5.12,26.3,26.3,0,0,1,.54-5.4,12.17,12.17,0,0,1,1.9-4.5,9.7,9.7,0,0,1,3.6-3.09,12.19,12.19,0,0,1,5.6-1.16,9.29,9.29,0,0,1,5,1.26,10.57,10.57,0,0,1,3.38,3.24,14.15,14.15,0,0,1,1.93,4.54,21.75,21.75,0,0,1,0,10.23Zm35.6,5.62V170.23a11.74,11.74,0,0,0-1.1-5.44,8.56,8.56,0,0,0-2.83-3.24,10.51,10.51,0,0,0-3.92-1.58,23.21,23.21,0,0,0-4.38-.42,20.12,20.12,0,0,0-5.27.65,11.68,11.68,0,0,0-4.15,2,9.57,9.57,0,0,0-2.8,3.47,13.47,13.47,0,0,0-1.22,5h4c.09-2.7.94-4.66,2.58-5.89a10.22,10.22,0,0,1,6.3-1.83,19,19,0,0,1,3.38.29,7.5,7.5,0,0,1,2.76,1.06,5.33,5.33,0,0,1,1.87,2.09,7.42,7.42,0,0,1,.67,3.38,5.83,5.83,0,0,1-.35,2.19,3.27,3.27,0,0,1-1,1.32,3.94,3.94,0,0,1-1.61.67,21.3,21.3,0,0,1-2.25.32c-2.18.26-4.34.53-6.46.81a23.58,23.58,0,0,0-5.72,1.44,9.8,9.8,0,0,0-4.09,3A8.59,8.59,0,0,0,1182,185a10,10,0,0,0,.87,4.34,8.39,8.39,0,0,0,2.38,3,9.76,9.76,0,0,0,3.54,1.73,16.38,16.38,0,0,0,4.34.55,17.32,17.32,0,0,0,4.22-.45,11.57,11.57,0,0,0,3.15-1.29,10.78,10.78,0,0,0,2.51-2.09,26.81,26.81,0,0,0,2.22-2.86h.13a15.41,15.41,0,0,0,.16,2.35,4.4,4.4,0,0,0,.67,1.83,3.35,3.35,0,0,0,1.45,1.19,6.1,6.1,0,0,0,2.47.42,10.75,10.75,0,0,0,1.39-.07c.36,0,.78-.1,1.25-.19V190a3.11,3.11,0,0,1-1.28.26A2.14,2.14,0,0,1,1209.11,187.85Zm-4.06-7a9.77,9.77,0,0,1-3.44,7.66,10.86,10.86,0,0,1-3.7,2.06,13.93,13.93,0,0,1-4.43.7,8.69,8.69,0,0,1-2.77-.45,7.18,7.18,0,0,1-2.38-1.32,6.52,6.52,0,0,1-1.64-2.05,5.91,5.91,0,0,1-.61-2.74,4.84,4.84,0,0,1,1.44-3.76,9.89,9.89,0,0,1,3.7-2,29.77,29.77,0,0,1,5-1.06q2.73-.34,5.3-.8a16.65,16.65,0,0,0,1.93-.45,2.33,2.33,0,0,0,1.48-1h.13ZM1241.27,163a9.21,9.21,0,0,0-3.77-2.54,16.32,16.32,0,0,0-5.82-.9,12,12,0,0,0-6.49,1.84,9.68,9.68,0,0,0-4.12,4.85h-.13v-5.72h-4v33.19h4V174.35a14.46,14.46,0,0,1,.81-4.54,11,11,0,0,1,2-3.6,9.45,9.45,0,0,1,3.22-2.38,10.28,10.28,0,0,1,4.34-.87,9.69,9.69,0,0,1,4.09.77,6.61,6.61,0,0,1,2.6,2.13,8.3,8.3,0,0,1,1.35,3.18,19,19,0,0,1,.39,4v20.71h4V172.35a22.46,22.46,0,0,0-.58-5.34A9.51,9.51,0,0,0,1241.27,163Zm30.47-2.47-10.23,28.3-10.94-28.3h-4.3l13.25,33.06-1.42,3.73c-.34.77-.67,1.48-1,2.12a6,6,0,0,1-1.1,1.64,4.59,4.59,0,0,1-1.51,1.06,5.45,5.45,0,0,1-2.22.39,9,9,0,0,1-1.38-.1c-.45-.06-.91-.14-1.39-.22v3.41a3.89,3.89,0,0,0,1.2.22l1.89.1a12.29,12.29,0,0,0,3.19-.35,5.8,5.8,0,0,0,2.18-1.16,8.26,8.26,0,0,0,1.71-2.19,38.32,38.32,0,0,0,1.67-3.5l14.41-38.21Z"/><rect class="cls-2" x="259.64" y="88.12" width="20.87" height="17.2"/><rect class="cls-2" x="259.64" y="117.08" width="20.87" height="76"/><polygon class="cls-2" points="290.26 117.08 314.07 117.08 327.45 136.92 340.68 117.08 363.76 117.08 338.77 152.65 366.84 193.07 343.03 193.07 327.15 169.11 311.28 193.07 287.9 193.07 315.25 153.09 290.26 117.08"/><path class="cls-2" d="M406.52,131.78a22.9,22.9,0,0,0,7.13-1.69,13.56,13.56,0,0,0,5.43-4,10.9,10.9,0,0,0,2.14-7.05q0-6.61-4.41-10.15a15.79,15.79,0,0,0-10.15-3.52q-7.94,0-12,5.22t-3.89,13.15H370.94a43.72,43.72,0,0,1,2.87-14.48A33,33,0,0,1,381,98a32,32,0,0,1,11.1-7.28,38.79,38.79,0,0,1,14.41-2.57A43,43,0,0,1,418.87,90,35,35,0,0,1,430,95.47a29.87,29.87,0,0,1,8,9,23.87,23.87,0,0,1,3.08,12.21,24.39,24.39,0,0,1-3.6,13.23,18.05,18.05,0,0,1-10.8,7.79V138A22.43,22.43,0,0,1,440,146.18a24.11,24.11,0,0,1,4.85,15.14,31.75,31.75,0,0,1-3.16,14.41,31.35,31.35,0,0,1-8.45,10.58,37.26,37.26,0,0,1-12.2,6.47A47.13,47.13,0,0,1,406.66,195a47.65,47.65,0,0,1-15.8-2.5,33.16,33.16,0,0,1-12.13-7.28A32.16,32.16,0,0,1,371,173.52a41.2,41.2,0,0,1-2.58-15.87h19.85a29.94,29.94,0,0,0,1.32,7.86A19.42,19.42,0,0,0,393,172a16,16,0,0,0,5.52,4.34,17.67,17.67,0,0,0,7.86,1.61,17.25,17.25,0,0,0,11.91-4.33q4.85-4.33,4.85-11.84,0-5.87-2.28-9a13.1,13.1,0,0,0-5.81-4.49,24.1,24.1,0,0,0-7.71-1.61q-4.2-.22-8-.22v-14.7A45.63,45.63,0,0,0,406.52,131.78Z"/><rect class="cls-3" x="103.19" y="103.21" width="36.74" height="36.74"/><polygon class="cls-3" points="193.12 139.97 193.12 50.02 103.19 50.04 103.19 67.78 175.39 67.78 175.39 139.97 193.12 139.97"/><polygon class="cls-3" points="50 103.2 50 193.16 139.93 193.14 139.93 175.4 67.74 175.4 67.74 103.2 50 103.2"/></svg>